<svg id="visual" viewBox="0 0 900 600" width="900" height="600" xmlns="http://www.w3.org/2000/svg" xmlns:xlink="http://www.w3.org/1999/xlink" version="1.1"><rect x="0" y="0" width="900" height="600" fill="#e0e0e0"></rect><path d="M587 600L655 581L767 561L386 542L520 523L298 503L692 484L502 465L748 445L652 426L562 406L627 387L265 368L372 348L611 329L792 310L427 290L486 271L232 252L898 232L589 213L351 194L306 174L533 155L604 135L740 116L746 97L570 77L437 58L190 39L413 19L851 0" fill="none" stroke-linecap="square" stroke-linejoin="bevel" stroke="#7a0b27" stroke-width="99"></path></svg>
