<svg width="227" height="208" viewBox="0 0 227 208" fill="none" xmlns="http://www.w3.org/2000/svg">
    <g filter="url(#filter0_d_243_85)">
        <path d="M8 16.6667C8 7.46192 15.4619 0 24.6667 0H191.333C200.538 0 208 7.46192 208 16.6667V183.333C208 192.538 200.538 200 191.333 200H24.6667C15.4619 200 8 192.538 8 183.333V16.6667Z" fill="#24292F"/>
        <path d="M172.683 77.9487C182.529 89.5557 181.329 106.677 170.002 116.191C158.676 125.704 141.512 124.007 131.666 112.4C121.82 100.793 123.02 83.6717 134.346 74.1582C145.673 64.6447 162.837 66.3418 172.683 77.9487Z" fill="#4F5B93"/>
        <path d="M165.098 84.9513C163.512 86.034 163.13 88.1863 164.244 89.7585C165.359 91.3307 167.548 91.7275 169.133 90.6448C170.719 89.5621 171.101 87.4098 169.987 85.8376C168.873 84.2654 166.684 83.8686 165.098 84.9513Z" fill="#EFEFEF"/>
        <path d="M156.155 76.0525C154.569 77.1352 154.187 79.2875 155.302 80.8597C156.416 82.4319 158.605 82.8287 160.19 81.746C161.776 80.6633 162.158 78.511 161.044 76.9388C159.93 75.3666 157.741 74.9698 156.155 76.0525Z" fill="#EFEFEF"/>
        <path d="M155.004 86.7807C153.419 87.8634 153.037 90.0157 154.151 91.5879C155.265 93.1601 157.454 93.5569 159.04 92.4742C160.626 91.3915 161.008 89.2392 159.893 87.667C158.779 86.0948 156.59 85.698 155.004 86.7807Z" fill="#EFEFEF"/>
    </g>
    <path d="M96.3083 60.1961C96.584 59.0029 97.011 57.76 97.5505 56.495C102.328 45.2932 118.74 48.032 119.321 60.1961V60.1961C119.873 71.7221 112.24 89.3135 112.24 89.3135C112.24 89.3135 122.552 117.999 121.977 136.681C121.523 151.417 113.863 174 113.863 174C113.863 174 106.76 174 102.209 174C102.209 174 93.8138 151.455 93.0628 136.681C92.1148 118.028 102.209 89.3135 102.209 89.3135C102.209 89.3135 93.6886 71.5342 96.3083 60.1961Z" fill="#D9D9D9"/>
    <path d="M102 89H113" stroke="#AD0000"/>
    <path d="M101 92H112" stroke="#AD0000"/>
    <path d="M13.6216 139.777C13.082 139.274 12.5621 138.676 12.0646 138.014C7.65896 132.147 14.0321 124.408 20.5542 127.769V127.769C26.7342 130.954 33.6138 140.235 33.6138 140.235C33.6138 140.235 51.6875 143.497 61.2618 149.424C68.8142 154.1 78.29 164.9 78.29 164.9C78.29 164.9 76.1503 168.606 74.7792 170.981C74.7792 170.981 60.4869 168.57 52.5516 164.511C42.5337 159.387 30.5919 145.47 30.5919 145.47C30.5919 145.47 18.7483 144.559 13.6216 139.777Z" fill="#D9D9D9"/>
    <path d="M30.3653 145.484L33.679 139.745" stroke="#AD0000" stroke-width="0.602494"/>
    <path d="M31.6294 146.91L34.9431 141.17" stroke="#AD0000" stroke-width="0.602494"/>
    <path d="M190.811 95.4486C191.849 94.7998 193.03 94.2228 194.306 93.7099C205.605 89.1671 215.274 102.709 207.084 111.721V111.721C199.323 120.261 181.487 127.303 181.487 127.303C181.487 127.303 168.495 154.878 154.879 167.682C144.138 177.781 122.752 188.333 122.752 188.333C122.752 188.333 117.73 183.311 114.512 180.093C114.512 180.093 124.517 158.215 134.433 147.236C146.952 133.377 174.394 120.21 174.394 120.21C174.394 120.21 180.941 101.613 190.811 95.4486Z" fill="#D9D9D9"/>
    <path d="M174.468 119.841L182.246 127.619" stroke="#AD0000"/>
    <path d="M171.64 121.255L179.418 129.033" stroke="#AD0000"/>
    <path d="M60.484 101.088C60.4584 100.35 60.5131 99.5603 60.6298 98.74C61.6633 91.476 71.6415 90.5107 73.8769 97.499V97.499C75.995 104.121 74.2965 115.549 74.2965 115.549C74.2965 115.549 84.7704 130.635 87.349 141.596C89.383 150.243 88.4466 164.58 88.4466 164.58C88.4466 164.58 84.313 165.688 81.6643 166.397C81.6643 166.397 73.263 154.586 70.522 146.105C67.0618 135.398 68.4586 117.113 68.4586 117.113C68.4586 117.113 60.7275 108.094 60.484 101.088Z" fill="#D9D9D9"/>
    <path d="M68.288 116.963L74.6896 115.248" stroke="#AD0000" stroke-width="0.602494"/>
    <path d="M68.1738 118.865L74.5755 117.149" stroke="#AD0000" stroke-width="0.602494"/>
    <defs>
        <filter id="filter0_d_243_85" x="4" y="0" width="208" height="208" filterUnits="userSpaceOnUse" color-interpolation-filters="sRGB">
            <feFlood flood-opacity="0" result="BackgroundImageFix"/>
            <feColorMatrix in="SourceAlpha" type="matrix" values="0 0 0 0 0 0 0 0 0 0 0 0 0 0 0 0 0 0 127 0" result="hardAlpha"/>
            <feOffset dy="4"/>
            <feGaussianBlur stdDeviation="2"/>
            <feComposite in2="hardAlpha" operator="out"/>
            <feColorMatrix type="matrix" values="0 0 0 0 0 0 0 0 0 0 0 0 0 0 0 0 0 0 0.25 0"/>
            <feBlend mode="normal" in2="BackgroundImageFix" result="effect1_dropShadow_243_85"/>
            <feBlend mode="normal" in="SourceGraphic" in2="effect1_dropShadow_243_85" result="shape"/>
        </filter>
    </defs>
</svg>
