<svg width="227" height="159" viewBox="0 0 227 159" fill="none" xmlns="http://www.w3.org/2000/svg">
    <path d="M172.683 41.9487C182.529 53.5557 181.329 70.6771 170.002 80.1906C158.676 89.7041 141.512 88.007 131.666 76.4001C121.82 64.7932 123.02 47.6717 134.346 38.1582C145.673 28.6447 162.837 30.3418 172.683 41.9487Z" fill="#4F5B93"/>
    <path d="M165.098 48.9513C163.512 50.034 163.13 52.1863 164.244 53.7585C165.359 55.3307 167.548 55.7275 169.133 54.6448C170.719 53.5621 171.101 51.4098 169.987 49.8376C168.873 48.2654 166.684 47.8686 165.098 48.9513Z" fill="#EFEFEF"/>
    <path d="M156.155 40.0525C154.569 41.1352 154.187 43.2875 155.302 44.8597C156.416 46.4319 158.605 46.8287 160.19 45.746C161.776 44.6633 162.158 42.511 161.044 40.9388C159.93 39.3666 157.741 38.9698 156.155 40.0525Z" fill="#EFEFEF"/>
    <path d="M155.004 50.7807C153.419 51.8634 153.037 54.0157 154.151 55.5879C155.265 57.1601 157.454 57.5569 159.04 56.4742C160.626 55.3915 161.008 53.2392 159.893 51.667C158.779 50.0948 156.59 49.698 155.004 50.7807Z" fill="#EFEFEF"/>
    <path d="M96.3083 24.1961C96.584 23.0029 97.011 21.76 97.5505 20.495C102.328 9.2932 118.74 12.032 119.321 24.1961C119.873 35.7221 112.24 53.3135 112.24 53.3135C112.24 53.3135 122.552 81.999 121.977 100.681C121.523 115.417 113.863 138 113.863 138C113.863 138 106.76 138 102.209 138C102.209 138 93.8138 115.455 93.0628 100.681C92.1148 82.0284 102.209 53.3135 102.209 53.3135C102.209 53.3135 93.6886 35.5342 96.3083 24.1961Z" fill="#D9D9D9"/>
    <path d="M102 53H113" stroke="#AD0000"/>
    <path d="M101 56H112" stroke="#AD0000"/>
    <path d="M13.6216 103.777C13.082 103.274 12.5621 102.676 12.0646 102.014C7.65896 96.1466 14.0321 88.4083 20.5542 91.7692C26.7342 94.9538 33.6138 104.235 33.6138 104.235C33.6138 104.235 51.6875 107.497 61.2618 113.424C68.8142 118.1 78.29 128.9 78.29 128.9C78.29 128.9 76.1503 132.606 74.7792 134.981C74.7792 134.981 60.4869 132.57 52.5516 128.511C42.5337 123.387 30.5919 109.47 30.5919 109.47C30.5919 109.47 18.7483 108.559 13.6216 103.777Z" fill="#D9D9D9"/>
    <path d="M30.3653 109.484L33.679 103.745" stroke="#AD0000" stroke-width="0.602494"/>
    <path d="M31.6294 110.91L34.9431 105.17" stroke="#AD0000" stroke-width="0.602494"/>
    <path d="M190.811 59.4486C191.849 58.7998 193.03 58.2228 194.306 57.7099C205.605 53.1671 215.274 66.7087 207.084 75.7213C199.323 84.2611 181.487 91.3034 181.487 91.3034C181.487 91.3034 168.495 118.878 154.879 131.682C144.138 141.781 122.752 152.333 122.752 152.333C122.752 152.333 117.73 147.311 114.512 144.093C114.512 144.093 124.517 122.215 134.433 111.236C146.952 97.3769 174.394 84.2102 174.394 84.2102C174.394 84.2102 180.941 65.6133 190.811 59.4486Z" fill="#D9D9D9"/>
    <path d="M174.468 83.8406L182.246 91.6188" stroke="#AD0000"/>
    <path d="M171.64 85.2548L179.418 93.033" stroke="#AD0000"/>
    <path d="M60.484 65.0876C60.4584 64.3502 60.5131 63.5603 60.6298 62.74C61.6633 55.476 71.6415 54.5107 73.8769 61.499C75.995 68.1208 74.2965 79.5485 74.2965 79.5485C74.2965 79.5485 84.7704 94.6346 87.349 105.596C89.383 114.243 88.4466 128.58 88.4466 128.58C88.4466 128.58 84.313 129.688 81.6643 130.397C81.6643 130.397 73.263 118.586 70.522 110.105C67.0618 99.3979 68.4586 81.1128 68.4586 81.1128C68.4586 81.1128 60.7275 72.0945 60.484 65.0876Z" fill="#D9D9D9"/>
    <path d="M68.288 80.9629L74.6896 79.2476" stroke="#AD0000" stroke-width="0.602494"/>
    <path d="M68.1738 82.8647L74.5754 81.1494" stroke="#AD0000" stroke-width="0.602494"/>
</svg>
