<svg width="185" height="147" viewBox="0 0 185 147" fill="none" xmlns="http://www.w3.org/2000/svg">
    <path d="M0 14.3417C0 6.97894 6.81424 1.50723 14.0033 3.09736L50.5939 11.1908C51.4106 11.3714 52.2445 11.4626 53.081 11.4626H172.59C178.95 11.4626 184.106 16.6185 184.106 22.9787V135.283C184.106 141.643 178.95 146.799 172.59 146.799H11.5161C5.15595 146.799 0 141.643 0 135.283V14.3417Z" fill="#CCCCCC" fill-opacity="0.752941"/>
    <path d="M0 13.6774C0 9.43729 3.4373 6 7.67742 6H42.9925C44.5034 6 45.9808 6.44583 47.2395 7.28164L76.6061 26.7819C77.8648 27.6177 79.3422 28.0635 80.8531 28.0635H176.581C180.821 28.0635 184.258 24.6262 184.258 20.3861V6V138.491C184.258 142.731 180.821 146.168 176.581 146.168H7.6774C3.43728 146.168 0 142.731 0 138.491V13.6774Z" fill="#24292F"/>
    <path d="M68.6389 62H115.361C118.474 62 121 64.5262 121 67.6389V114.361C121 115.857 120.406 117.291 119.348 118.348C118.291 119.406 116.857 120 115.361 120H68.6389C67.1434 120 65.7091 119.406 64.6516 118.348C63.5941 117.291 63 115.857 63 114.361V67.6389C63 64.5262 65.5262 62 68.6389 62ZM115.361 66.8333H68.6389C68.4252 66.8333 68.2203 66.9182 68.0693 67.0693C67.9182 67.2203 67.8333 67.4252 67.8333 67.6389V114.361C67.8333 114.806 68.1942 115.167 68.6389 115.167H69.2511L100.903 83.5148C101.427 82.9911 102.048 82.5757 102.732 82.2923C103.417 82.0089 104.15 81.863 104.891 81.863C105.631 81.863 106.364 82.0089 107.049 82.2923C107.733 82.5757 108.354 82.9911 108.878 83.5148L116.167 90.8034V67.6389C116.167 67.4252 116.082 67.2203 115.931 67.0693C115.78 66.9182 115.575 66.8333 115.361 66.8333ZM116.167 97.6378L105.459 86.9303C105.384 86.8553 105.296 86.7958 105.198 86.7552C105.1 86.7146 104.995 86.6937 104.889 86.6937C104.783 86.6937 104.678 86.7146 104.58 86.7552C104.482 86.7958 104.393 86.8553 104.319 86.9303L76.0854 115.167H115.361C115.575 115.167 115.78 115.082 115.931 114.931C116.082 114.78 116.167 114.575 116.167 114.361V97.6378ZM80.7222 87.7778C78.5858 87.7778 76.5368 86.9291 75.0261 85.4184C73.5154 83.9077 72.6667 81.8587 72.6667 79.7222C72.6667 77.5858 73.5154 75.5368 75.0261 74.0261C76.5368 72.5154 78.5858 71.6667 80.7222 71.6667C82.8587 71.6667 84.9077 72.5154 86.4184 74.0261C87.9291 75.5368 88.7778 77.5858 88.7778 79.7222C88.7778 81.8587 87.9291 83.9077 86.4184 85.4184C84.9077 86.9291 82.8587 87.7778 80.7222 87.7778ZM80.7222 82.9444C81.5768 82.9444 82.3964 82.605 83.0007 82.0007C83.605 81.3964 83.9444 80.5768 83.9444 79.7222C83.9444 78.8676 83.605 78.0481 83.0007 77.4438C82.3964 76.8395 81.5768 76.5 80.7222 76.5C79.8676 76.5 79.0481 76.8395 78.4438 77.4438C77.8395 78.0481 77.5 78.8676 77.5 79.7222C77.5 80.5768 77.8395 81.3964 78.4438 82.0007C79.0481 82.605 79.8676 82.9444 80.7222 82.9444Z" fill="white"/>
</svg>
