<svg width="40" height="15" viewBox="0 0 40 15" fill="none" xmlns="http://www.w3.org/2000/svg">
    <path d="M7.97727 3.27273V12H6.95455L2.19886 5.14773H2.11364V12H1.05682V3.27273H2.07955L6.85227 10.142H6.9375V3.27273H7.97727ZM10.092 12V3.27273H15.359V4.21023H11.1488V7.15909H15.0863V8.09659H11.1488V11.0625H15.4272V12H10.092ZM29.7411 3.27273H30.7979V9.05114C30.7979 9.64773 30.6573 10.1804 30.3761 10.6491C30.0977 11.1151 29.7042 11.483 29.1957 11.7528C28.6871 12.0199 28.0906 12.1534 27.4059 12.1534C26.7212 12.1534 26.1246 12.0199 25.6161 11.7528C25.1076 11.483 24.7127 11.1151 24.4315 10.6491C24.1531 10.1804 24.0138 9.64773 24.0138 9.05114V3.27273H25.0707V8.96591C25.0707 9.39205 25.1644 9.77131 25.3519 10.1037C25.5394 10.4332 25.8065 10.6932 26.1531 10.8835C26.5025 11.071 26.9201 11.1648 27.4059 11.1648C27.8917 11.1648 28.3093 11.071 28.6587 10.8835C29.0082 10.6932 29.2752 10.4332 29.4599 10.1037C29.6474 9.77131 29.7411 9.39205 29.7411 8.96591V3.27273ZM37.6811 5.45455C37.63 5.02273 37.4226 4.6875 37.0589 4.44886C36.6953 4.21023 36.2493 4.09091 35.7209 4.09091C35.3345 4.09091 34.9964 4.15341 34.7067 4.27841C34.4197 4.40341 34.1953 4.57528 34.0334 4.79403C33.8743 5.01278 33.7947 5.26136 33.7947 5.53977C33.7947 5.77273 33.8501 5.97301 33.9609 6.14062C34.0746 6.3054 34.2195 6.44318 34.3956 6.55398C34.5717 6.66193 34.7564 6.75142 34.9496 6.82244C35.1428 6.89062 35.3203 6.94602 35.4822 6.98864L36.3686 7.22727C36.5959 7.28693 36.8487 7.36932 37.1271 7.47443C37.4084 7.57955 37.6768 7.72301 37.9325 7.90483C38.1911 8.08381 38.4041 8.31392 38.5717 8.59517C38.7393 8.87642 38.8232 9.22159 38.8232 9.63068C38.8232 10.1023 38.6996 10.5284 38.4524 10.9091C38.2081 11.2898 37.8501 11.5923 37.3786 11.8168C36.9098 12.0412 36.3402 12.1534 35.6697 12.1534C35.0447 12.1534 34.5036 12.0526 34.0462 11.8509C33.5916 11.6491 33.2337 11.3679 32.9723 11.0071C32.7138 10.6463 32.5675 10.2273 32.5334 9.75H33.6243C33.6527 10.0795 33.7635 10.3523 33.9567 10.5682C34.1527 10.7812 34.3999 10.9403 34.6982 11.0455C34.9993 11.1477 35.3232 11.1989 35.6697 11.1989C36.0732 11.1989 36.4354 11.1335 36.7564 11.0028C37.0774 10.8693 37.3317 10.6847 37.5192 10.4489C37.7067 10.2102 37.8004 9.93182 37.8004 9.61364C37.8004 9.32386 37.7195 9.08807 37.5575 8.90625C37.3956 8.72443 37.1825 8.5767 36.9183 8.46307C36.6541 8.34943 36.3686 8.25 36.0618 8.16477L34.9879 7.85795C34.3061 7.66193 33.7663 7.3821 33.3686 7.01847C32.9709 6.65483 32.772 6.17898 32.772 5.59091C32.772 5.10227 32.9041 4.67614 33.1683 4.3125C33.4354 3.94602 33.7933 3.66193 34.2422 3.46023C34.6939 3.25568 35.1982 3.15341 35.755 3.15341C36.3175 3.15341 36.8175 3.25426 37.255 3.45597C37.6925 3.65483 38.0391 3.92756 38.2947 4.27415C38.5533 4.62074 38.6896 5.0142 38.7038 5.45455H37.6811Z" fill="black"/>
    <path d="M17.4886 3.27273L19.2486 6.24716H19.3168L21.0852 3.27273H23.169L20.5057 7.63636L23.2287 12H21.1065L19.3168 9.02131H19.2486L17.4588 12H15.3452L18.0767 7.63636L15.3963 3.27273H17.4886Z" fill="#E1AF00"/>
</svg>
