<svg width="62" height="24" viewBox="0 0 62 24" fill="none" xmlns="http://www.w3.org/2000/svg">
    <path d="M15.2502 6.50851C16.0702 10.5244 13.4794 14.4445 9.46356 15.2645C5.44771 16.0844 1.52753 13.4937 0.707581 9.4778C-0.112368 5.46196 2.47842 1.54177 6.49427 0.721824C10.5101 -0.0981238 14.4303 2.49266 15.2502 6.50851Z" fill="#D9D9D9"/>
    <path d="M1.62952 11.8752L14.4788 11.5205L9.66439 20.4176C9.08527 21.4879 7.56475 21.5298 6.92746 20.4932L1.62952 11.8752Z" fill="#D9D9D9"/>
    <circle cx="8.26737" cy="7.7229" r="3.68846" transform="rotate(-2.90891 8.26737 7.7229)" fill="white"/>
    <path d="M20.5243 22.6037L17.9852 22.6176C17.9391 22.6176 17.916 22.5945 17.916 22.5484L17.9437 12.8142C17.9437 12.7773 17.9621 12.7589 17.999 12.7589L20.6488 12.745C21.1746 12.7312 21.6496 12.8511 22.074 13.1048C22.5029 13.3584 22.8442 13.7021 23.0979 14.1356C23.3562 14.5646 23.4853 15.0396 23.4853 15.5608V19.6288C23.4853 20.1731 23.3539 20.6712 23.091 21.1232C22.8235 21.5706 22.4683 21.928 22.0255 22.1955C21.5828 22.4584 21.0823 22.5945 20.5243 22.6037ZM20.6488 14.44L19.6595 14.4539L19.6456 20.8741H20.5243C20.8748 20.8741 21.17 20.7519 21.4098 20.5075C21.6496 20.263 21.7696 19.9701 21.7696 19.6288V15.547C21.7696 15.2472 21.6589 14.9866 21.4375 14.7652C21.2161 14.5392 20.9532 14.4308 20.6488 14.44Z" fill="#D9D9D9"/>
    <path d="M26.2734 22.6176H24.6684C24.6222 22.6176 24.5992 22.5945 24.5992 22.5484L24.613 12.8142C24.613 12.7773 24.6315 12.7589 24.6684 12.7589H26.2596C26.2965 12.7589 26.3149 12.7773 26.3149 12.8142L26.3288 22.5484C26.3288 22.5945 26.3103 22.6176 26.2734 22.6176Z" fill="#D9D9D9"/>
    <path d="M29.9817 22.7559C29.479 22.7559 29.0154 22.6268 28.5911 22.3685C28.1714 22.1102 27.8347 21.7666 27.581 21.3377C27.332 20.9041 27.2074 20.4291 27.2074 19.9125V19.2621C27.2074 19.2114 27.2305 19.186 27.2766 19.186H28.8678C28.9047 19.186 28.9232 19.2114 28.9232 19.2621V19.9125C28.9232 20.2215 29.027 20.489 29.2345 20.715C29.4421 20.9364 29.6911 21.0471 29.9817 21.0471C30.2769 21.0471 30.5283 20.9341 30.7358 20.7081C30.9434 20.4775 31.0471 20.2123 31.0471 19.9125C31.0471 19.5666 30.8211 19.2645 30.3691 19.0062C30.2953 18.96 30.1985 18.9047 30.0786 18.8401C29.9633 18.7709 29.8249 18.6925 29.6635 18.6049C29.502 18.5173 29.3452 18.4319 29.193 18.3489C29.0408 18.2613 28.8932 18.1783 28.7502 18.0999C28.2337 17.7954 27.8485 17.4149 27.5949 16.9583C27.3458 16.4971 27.2213 15.9805 27.2213 15.4086C27.2213 14.8828 27.3504 14.4077 27.6087 13.9834C27.867 13.5637 28.2037 13.2316 28.6188 12.9872C29.0385 12.7381 29.4928 12.6136 29.9817 12.6136C30.4844 12.6136 30.9457 12.7381 31.3654 12.9872C31.7851 13.2408 32.1195 13.5775 32.3685 13.9972C32.6222 14.417 32.7491 14.8874 32.7491 15.4086V16.5709C32.7491 16.6078 32.7306 16.6262 32.6937 16.6262H31.1025C31.0656 16.6262 31.0471 16.6078 31.0471 16.5709L31.0333 15.4086C31.0333 15.0765 30.9295 14.8067 30.722 14.5991C30.5144 14.3916 30.2677 14.2878 29.9817 14.2878C29.6911 14.2878 29.4421 14.3985 29.2345 14.6199C29.027 14.8413 28.9232 15.1042 28.9232 15.4086C28.9232 15.7176 28.9878 15.9759 29.1169 16.1835C29.2507 16.391 29.4928 16.5893 29.8433 16.7784C29.8802 16.7969 29.9656 16.843 30.0993 16.9168C30.2331 16.9906 30.3807 17.0736 30.5421 17.1659C30.7081 17.2535 30.858 17.3342 30.9918 17.408C31.1255 17.4772 31.2063 17.5187 31.2339 17.5325C31.7044 17.7954 32.0757 18.1183 32.3478 18.5011C32.6245 18.8839 32.7629 19.3544 32.7629 19.9125C32.7629 20.4521 32.6384 20.9364 32.3893 21.3653C32.1356 21.7943 31.7989 22.1333 31.3792 22.3823C30.9595 22.6314 30.4937 22.7559 29.9817 22.7559Z" fill="#D9D9D9"/>
    <path d="M36.4781 22.6176H34.8799C34.8384 22.6176 34.8177 22.5945 34.8177 22.5484V14.4677H32.9774C32.9312 14.4677 32.9082 14.4446 32.9082 14.3985L32.922 12.8142C32.922 12.7773 32.9405 12.7589 32.9774 12.7589H38.3599C38.4106 12.7589 38.436 12.7773 38.436 12.8142V14.3985C38.436 14.4446 38.4175 14.4677 38.3806 14.4677H36.5196L36.5334 22.5484C36.5334 22.5945 36.515 22.6176 36.4781 22.6176Z" fill="#D9D9D9"/>
    <path d="M37.7926 22.5484L39.5498 12.8142C39.5591 12.7773 39.5821 12.7589 39.619 12.7589H41.6738C41.7107 12.7589 41.7337 12.7773 41.743 12.8142L43.4311 22.5484C43.4357 22.5945 43.4172 22.6176 43.3757 22.6176H41.8052C41.7591 22.6176 41.7338 22.5945 41.7291 22.5484L41.5769 21.5106H39.6467L39.4945 22.5484C39.4899 22.5945 39.4668 22.6176 39.4253 22.6176H37.8479C37.811 22.6176 37.7926 22.5945 37.7926 22.5484ZM40.5668 16.0174L39.9304 19.9955H41.2933L40.7121 16.0174L40.6291 15.4916L40.5668 16.0174Z" fill="#D9D9D9"/>
    <path d="M45.8594 22.6176H44.4411C44.3674 22.6176 44.3305 22.5853 44.3305 22.5207L44.3166 12.8695C44.3166 12.7958 44.3535 12.7589 44.4273 12.7589H45.7072L48.101 18.342L48.0318 12.8695C48.0318 12.7958 48.0733 12.7589 48.1563 12.7589H49.5608C49.6161 12.7589 49.6438 12.7958 49.6438 12.8695L49.6576 22.5345C49.6576 22.5899 49.6346 22.6176 49.5884 22.6176H48.3431L45.8871 17.4011L45.9909 22.5069C45.9909 22.5807 45.9471 22.6176 45.8594 22.6176Z" fill="#D9D9D9"/>
    <path d="M53.4973 22.7559C52.9854 22.7559 52.5172 22.6268 52.0929 22.3685C51.6732 22.1102 51.3388 21.7643 51.0897 21.3307C50.8453 20.8926 50.7231 20.406 50.7231 19.871L50.7369 15.4501C50.7369 14.9243 50.8568 14.4492 51.0966 14.0249C51.3365 13.596 51.6663 13.2524 52.086 12.9941C52.5103 12.7312 52.9808 12.5997 53.4973 12.5997C54.0231 12.5997 54.4913 12.7266 54.9018 12.9802C55.3169 13.2339 55.6466 13.5775 55.8911 14.0111C56.1402 14.44 56.2647 14.9197 56.2647 15.4501V16.1004C56.2647 16.1373 56.2462 16.1558 56.2093 16.1558H54.6181C54.5812 16.1558 54.5628 16.1373 54.5628 16.1004V15.4501C54.5628 15.1365 54.4613 14.8667 54.2584 14.6407C54.0554 14.4147 53.8017 14.3017 53.4973 14.3017C53.1606 14.3017 52.9023 14.417 52.7225 14.6476C52.5426 14.8782 52.4527 15.1457 52.4527 15.4501V19.871C52.4527 20.2169 52.5541 20.5005 52.7571 20.7219C52.96 20.9387 53.2068 21.0471 53.4973 21.0471C53.8017 21.0471 54.0554 20.9272 54.2584 20.6873C54.4613 20.4429 54.5628 20.1708 54.5628 19.871V19.2137C54.5628 19.1768 54.5812 19.1584 54.6181 19.1584H56.2232C56.2601 19.1584 56.2785 19.1768 56.2785 19.2137V19.871C56.2785 20.4014 56.154 20.8857 55.9049 21.3238C55.6513 21.7574 55.3169 22.1056 54.9018 22.3685C54.4867 22.6268 54.0185 22.7559 53.4973 22.7559Z" fill="#D9D9D9"/>
    <path d="M61.9447 22.6176H57.3647C57.3278 22.6176 57.3094 22.5945 57.3094 22.5484L57.3232 12.8142C57.3232 12.7773 57.3417 12.7589 57.3785 12.7589H61.9309C61.9678 12.7589 61.9862 12.7819 61.9862 12.828V14.4124C61.9862 14.4492 61.9678 14.4677 61.9309 14.4677H59.0251V16.6816H61.9309C61.9678 16.6816 61.9862 16.7 61.9862 16.7369L62 18.342C62 18.3789 61.9816 18.3973 61.9447 18.3973H59.0251V20.8741H61.9447C61.9816 20.8741 62 20.8972 62 20.9433V22.5622C62 22.5991 61.9816 22.6176 61.9447 22.6176Z" fill="#D9D9D9"/>
    <path d="M23.1586 11.011H18.0433C18.0021 11.011 17.9814 10.9853 17.9814 10.9338L17.9969 0.0618163C17.9969 0.0206054 18.0175 0 18.0587 0H23.1431C23.1843 0 23.2049 0.0257568 23.2049 0.0772704V1.84676C23.2049 1.88797 23.1843 1.90858 23.1431 1.90858H19.8978V4.38123H23.1431C23.1843 4.38123 23.2049 4.40184 23.2049 4.44305L23.2204 6.23572C23.2204 6.27693 23.1998 6.29754 23.1586 6.29754H19.8978V9.06382H23.1586C23.1998 9.06382 23.2204 9.08957 23.2204 9.14109V10.9492C23.2204 10.9904 23.1998 11.011 23.1586 11.011Z" fill="white"/>
    <path d="M27.5398 11.1656C26.9834 11.1656 26.4683 11.0213 25.9944 10.7329C25.5205 10.4444 25.1418 10.058 24.8585 9.5738C24.5803 9.08442 24.4413 8.55126 24.4413 7.97431L24.4722 0.0618163C24.4722 0.0206054 24.4928 0 24.534 0H26.3112C26.3524 0 26.373 0.0206054 26.373 0.0618163V7.97431C26.373 8.32975 26.4863 8.63368 26.713 8.8861C26.9397 9.13336 27.2153 9.25699 27.5398 9.25699C27.8798 9.25699 28.1631 9.13336 28.3898 8.8861C28.6164 8.63368 28.7298 8.32975 28.7298 7.97431V0.0618163C28.7298 0.0206054 28.7504 0 28.7916 0H30.5688C30.61 0 30.6306 0.0206054 30.6306 0.0618163L30.6615 7.97431C30.6615 8.55641 30.5224 9.09215 30.2443 9.58153C29.9609 10.0658 29.5849 10.4521 29.1161 10.7406C28.6473 11.0239 28.1219 11.1656 27.5398 11.1656Z" fill="white"/>
</svg>

