<svg width="96" height="99" viewBox="0 0 96 99" fill="none" xmlns="http://www.w3.org/2000/svg">
    <path d="M73.2441 27.5625C56.4838 17.2974 51.1222 6.75441 33.05 16.1335C14.9778 25.5127 5.06438 43.866 15.9171 66.5396C26.7699 89.2131 49.2491 89.2177 67.3213 79.8386C85.3935 70.4595 84.0969 50.2361 73.2441 27.5625Z" fill="#291600"/>
    <path d="M76.5171 25.8643C59.7568 15.5992 54.3951 5.05614 36.3229 14.4353C18.2507 23.8144 8.33733 42.1678 19.1901 64.8413C30.0428 87.5148 44.566 87.0358 62.6382 77.6567C80.7104 68.2775 87.3698 48.5378 76.5171 25.8643Z" fill="#7B501D"/>
    <path d="M49.2073 27.7366C62.2309 20.7293 43.9495 16.7521 49.2073 27.7366Z" fill="#200F00"/>
    <path d="M29.093 61.7517C42.1166 54.7444 23.8353 50.7672 29.093 61.7517Z" fill="#200F00"/>
    <path d="M61.7832 54.0117C74.8068 47.0044 56.5255 43.0272 61.7832 54.0117Z" fill="#200F00"/>
    <path d="M69.6287 43.7899C82.6523 36.7826 64.3709 32.8054 69.6287 43.7899Z" fill="#200F00"/>
    <path d="M34.6309 35.302C23.0567 41.0604 29.3731 24.3175 34.6309 35.302Z" fill="#200F00"/>
    <path d="M49.665 43.9002C38.0909 49.6586 44.4073 32.9157 49.665 43.9002Z" fill="#200F00"/>
    <path d="M52.5371 67.0105C40.963 72.7689 47.2794 56.026 52.5371 67.0105Z" fill="#200F00"/>
</svg>
