<svg width="96" height="41" viewBox="0 0 96 41" fill="none" xmlns="http://www.w3.org/2000/svg">
    <path d="M8.98953 34.2165C7.35255 34.2165 5.94447 33.8697 4.76528 33.1761C3.59304 32.4755 2.69131 31.5044 2.0601 30.2628C1.43583 29.0212 1.12369 27.5923 1.12369 25.9761C1.12369 24.3392 1.4393 22.9033 2.07051 21.6687C2.70865 20.427 3.61385 19.4594 4.78609 18.7658C5.95834 18.0652 7.35255 17.7149 8.96872 17.7149C10.3629 17.7149 11.5837 17.9681 12.6311 18.4745C13.6785 18.9808 14.5074 19.6918 15.1178 20.6074C15.7282 21.523 16.0646 22.5981 16.1271 23.8328H11.9444C11.8265 23.0351 11.5144 22.3935 11.008 21.908C10.5086 21.4155 9.85311 21.1692 9.04155 21.1692C8.35485 21.1692 7.75486 21.3565 7.24157 21.7311C6.73521 22.0987 6.33984 22.6363 6.05545 23.3438C5.77106 24.0513 5.62886 24.9079 5.62886 25.9137C5.62886 26.9334 5.76759 27.8004 6.04504 28.5148C6.32943 29.2293 6.72828 29.7738 7.24157 30.1484C7.75486 30.5229 8.35485 30.7102 9.04155 30.7102C9.54791 30.7102 10.0022 30.6062 10.4046 30.3981C10.8138 30.19 11.1502 29.8882 11.4138 29.4929C11.6843 29.0906 11.8612 28.6085 11.9444 28.0466H16.1271C16.0577 29.2674 15.7247 30.3426 15.1282 31.2721C14.5386 32.1946 13.7236 32.916 12.6831 33.4362C11.6427 33.9564 10.4115 34.2165 8.98953 34.2165ZM26.1857 34.2165C24.5695 34.2165 23.1718 33.8732 21.9926 33.1865C20.8204 32.4929 19.9152 31.5287 19.277 30.294C18.6389 29.0524 18.3198 27.6131 18.3198 25.9761C18.3198 24.3253 18.6389 22.8825 19.277 21.6478C19.9152 20.4062 20.8204 19.4421 21.9926 18.7554C23.1718 18.0617 24.5695 17.7149 26.1857 17.7149C27.8018 17.7149 29.196 18.0617 30.3683 18.7554C31.5475 19.4421 32.4561 20.4062 33.0943 21.6478C33.7324 22.8825 34.0515 24.3253 34.0515 25.9761C34.0515 27.6131 33.7324 29.0524 33.0943 30.294C32.4561 31.5287 31.5475 32.4929 30.3683 33.1865C29.196 33.8732 27.8018 34.2165 26.1857 34.2165ZM26.2065 30.783C26.9417 30.783 27.5556 30.5749 28.0481 30.1588C28.5405 29.7356 28.9116 29.1599 29.1614 28.4316C29.418 27.7033 29.5463 26.8744 29.5463 25.9449C29.5463 25.0155 29.418 24.1866 29.1614 23.4582C28.9116 22.7299 28.5405 22.1542 28.0481 21.7311C27.5556 21.308 26.9417 21.0964 26.2065 21.0964C25.4643 21.0964 24.84 21.308 24.3336 21.7311C23.8342 22.1542 23.4562 22.7299 23.1995 23.4582C22.9498 24.1866 22.825 25.0155 22.825 25.9449C22.825 26.8744 22.9498 27.7033 23.1995 28.4316C23.4562 29.1599 23.8342 29.7356 24.3336 30.1588C24.84 30.5749 25.4643 30.783 26.2065 30.783ZM44.1543 34.2165C42.5381 34.2165 41.1405 33.8732 39.9613 33.1865C38.789 32.4929 37.8838 31.5287 37.2457 30.294C36.6075 29.0524 36.2885 27.6131 36.2885 25.9761C36.2885 24.3253 36.6075 22.8825 37.2457 21.6478C37.8838 20.4062 38.789 19.4421 39.9613 18.7554C41.1405 18.0617 42.5381 17.7149 44.1543 17.7149C45.7705 17.7149 47.1647 18.0617 48.3369 18.7554C49.5161 19.4421 50.4248 20.4062 51.0629 21.6478C51.7011 22.8825 52.0201 24.3253 52.0201 25.9761C52.0201 27.6131 51.7011 29.0524 51.0629 30.294C50.4248 31.5287 49.5161 32.4929 48.3369 33.1865C47.1647 33.8732 45.7705 34.2165 44.1543 34.2165ZM44.1751 30.783C44.9104 30.783 45.5242 30.5749 46.0167 30.1588C46.5092 29.7356 46.8803 29.1599 47.13 28.4316C47.3867 27.7033 47.515 26.8744 47.515 25.9449C47.515 25.0155 47.3867 24.1866 47.13 23.4582C46.8803 22.7299 46.5092 22.1542 46.0167 21.7311C45.5242 21.308 44.9104 21.0964 44.1751 21.0964C43.4329 21.0964 42.8087 21.308 42.3023 21.7311C41.8029 22.1542 41.4248 22.7299 41.1682 23.4582C40.9185 24.1866 40.7936 25.0155 40.7936 25.9449C40.7936 26.8744 40.9185 27.7033 41.1682 28.4316C41.4248 29.1599 41.8029 29.7356 42.3023 30.1588C42.8087 30.5749 43.4329 30.783 44.1751 30.783ZM58.9184 29.3056L58.9288 23.9889H59.5738L64.6929 17.923H69.7807L62.9033 25.9553H61.8524L58.9184 29.3056ZM54.9022 33.9044V12.5959H59.3345V33.9044H54.9022ZM64.8906 33.9044L60.1877 26.9438L63.1426 23.812L70.0824 33.9044H64.8906ZM71.9553 33.9044V17.923H76.3876V33.9044H71.9553ZM74.1818 15.8629C73.5229 15.8629 72.9576 15.6444 72.4859 15.2074C72.0212 14.7635 71.7888 14.2329 71.7888 13.6155C71.7888 13.0051 72.0212 12.4814 72.4859 12.0444C72.9576 11.6005 73.5229 11.3786 74.1818 11.3786C74.8408 11.3786 75.4026 11.6005 75.8674 12.0444C76.3391 12.4814 76.5749 13.0051 76.5749 13.6155C76.5749 14.2329 76.3391 14.7635 75.8674 15.2074C75.4026 15.6444 74.8408 15.8629 74.1818 15.8629ZM87.2213 34.2165C85.5774 34.2165 84.1624 33.8836 82.9763 33.2177C81.7971 32.5449 80.8884 31.5946 80.2503 30.3669C79.6121 29.1322 79.2931 27.6721 79.2931 25.9865C79.2931 24.3426 79.6121 22.8999 80.2503 21.6582C80.8884 20.4166 81.7867 19.449 82.9451 18.7554C84.1104 18.0617 85.4768 17.7149 87.0445 17.7149C88.0988 17.7149 89.0803 17.8849 89.9889 18.2247C90.9045 18.5577 91.7022 19.0606 92.382 19.7334C93.0687 20.4062 93.6028 21.2525 93.9843 22.2721C94.3658 23.2848 94.5565 24.4709 94.5565 25.8305V27.0478H81.0618V24.301H90.3843C90.3843 23.6629 90.2456 23.0975 89.9681 22.6051C89.6907 22.1126 89.3057 21.7276 88.8132 21.4502C88.3277 21.1658 87.7624 21.0236 87.1173 21.0236C86.4445 21.0236 85.8479 21.1796 85.3277 21.4918C84.8144 21.797 84.4121 22.2097 84.1208 22.7299C83.8295 23.2432 83.6803 23.8155 83.6734 24.4467V27.0582C83.6734 27.849 83.8191 28.5322 84.1104 29.1079C84.4086 29.6836 84.8283 30.1276 85.3693 30.4397C85.9104 30.7518 86.552 30.9079 87.2942 30.9079C87.7867 30.9079 88.2375 30.8385 88.6468 30.6998C89.056 30.5611 89.4063 30.353 89.6976 30.0755C89.9889 29.7981 90.2109 29.4582 90.3635 29.0559L94.4629 29.3264C94.2548 30.3114 93.8282 31.1715 93.1831 31.9067C92.545 32.635 91.7196 33.2038 90.7069 33.6131C89.7011 34.0154 88.5392 34.2165 87.2213 34.2165Z" fill="#24292F"/>
    <path d="M79.2169 5.89292C80.0659 6.71555 80.5946 7.80164 80.9362 8.93341C81.7715 11.7011 82.5274 13.3422 80.2375 15.3985C77.5055 17.8517 73.6143 18.0729 70.1276 14.19C66.641 10.3071 67.9251 6.26214 70.6571 3.80893C73.0639 1.64779 76.1358 2.90767 79.2169 5.89292Z" fill="#6B3A01"/>
    <path d="M79.6745 5.48678C80.572 6.25625 81.0894 7.35746 81.431 8.48922C82.2663 11.257 83.0222 12.898 80.7323 14.9543C78.0003 17.4075 74.1091 17.6287 70.6224 13.7458C67.1358 9.86294 68.0527 7.29063 70.7847 4.83742C73.1857 2.6815 76.5322 2.79271 79.6745 5.48678Z" fill="#593000"/>
    <path d="M80.4479 11.5541C80.3562 12.5787 80.5396 10.5294 80.4479 11.5541V11.5541Z" fill="#341901"/>
    <path d="M73.1366 12.2773C73.045 13.302 73.2283 11.2527 73.1366 12.2773V12.2773Z" fill="#341901"/>
    <path d="M76.4074 7.05446C76.3157 8.07912 76.4991 6.02981 76.4074 7.05446V7.05446Z" fill="#341901"/>
    <path d="M78.7074 6.51307C78.6158 7.53772 78.7991 5.48841 78.7074 6.51307V6.51307Z" fill="#341901"/>
    <path d="M76.8499 14.7849C77.8089 14.8665 75.8909 14.7033 76.8499 14.7849V14.7849Z" fill="#341901"/>
    <path d="M76.1519 11.3479C77.1109 11.4295 75.1929 11.2662 76.1519 11.3479V11.3479Z" fill="#341901"/>
    <path d="M72.1299 8.86357C73.0889 8.94519 71.1709 8.78195 72.1299 8.86357V8.86357Z" fill="#341901"/>
</svg>
