<svg width="80" height="53" viewBox="0 0 80 53" fill="none" xmlns="http://www.w3.org/2000/svg">
    <path d="M0 0H80V53H0V0Z" fill="black"/>
    <path d="M14.7761 45H6.12184V20.5869H14.8476C17.3032 20.5869 19.4171 21.0757 21.1893 22.0531C22.9615 23.0227 24.3244 24.4174 25.278 26.2372C26.2396 28.0571 26.7204 30.2345 26.7204 32.7696C26.7204 35.3127 26.2396 37.4981 25.278 39.3259C24.3244 41.1537 22.9535 42.5563 21.1654 43.5338C19.3853 44.5113 17.2555 45 14.7761 45ZM11.2834 40.5775H14.5615C16.0873 40.5775 17.3708 40.3073 18.4118 39.7669C19.4608 39.2186 20.2476 38.3722 20.7721 37.2279C21.3045 36.0756 21.5707 34.5895 21.5707 32.7696C21.5707 30.9657 21.3045 29.4915 20.7721 28.3471C20.2476 27.2028 19.4648 26.3604 18.4237 25.82C17.3827 25.2796 16.0993 25.0094 14.5734 25.0094H11.2834V40.5775Z" fill="#F6F8FA"/>
    <path d="M30.5438 45V20.5869H46.9941V24.8425H35.7054V30.6597H46.1477V34.9153H35.7054V40.7444H47.0417V45H30.5438Z" fill="#F6F8FA"/>
    <path d="M55.5082 20.5869L61.4089 39.1351H61.6353L67.5479 20.5869H73.2697L64.8539 45H58.2023L49.7745 20.5869H55.5082Z" fill="#F6F8FA"/>
    <path d="M75.8356 45.3099C75.0488 45.3099 74.3733 45.0318 73.8091 44.4755C73.2528 43.9113 72.9747 43.2358 72.9747 42.449C72.9747 41.6702 73.2528 41.0027 73.8091 40.4464C74.3733 39.8901 75.0488 39.612 75.8356 39.612C76.5985 39.612 77.266 39.8901 77.8382 40.4464C78.4104 41.0027 78.6965 41.6702 78.6965 42.449C78.6965 42.9735 78.5614 43.4543 78.2912 43.8914C78.0289 44.3205 77.6832 44.6662 77.2541 44.9285C76.825 45.1828 76.3521 45.3099 75.8356 45.3099Z" fill="#F6F8FA"/>
</svg>