<svg width="89" height="89" viewBox="0 0 89 89" fill="none" xmlns="http://www.w3.org/2000/svg">
    <rect width="89" height="89" rx="17.8" fill="#FEFEFE"/>
    <rect x="21" y="61.6855" width="33.686" height="46.7257" rx="0.72315" transform="rotate(-90 21 61.6855)" fill="#3C3838"/>
    <rect x="21.0002" y="56.2524" width="22.8195" height="46.7257" transform="rotate(-90 21.0002 56.2524)" fill="#0A0A0A" fill-opacity="0.54"/>
    <rect x="43.8197" y="56.2524" width="22.8195" height="7.60651" transform="rotate(-90 43.8197 56.2524)" fill="#0A0A0A" fill-opacity="0.54"/>
    <rect x="61.2059" y="56.2524" width="22.8195" height="4.34658" transform="rotate(-90 61.2059 56.2524)" fill="#0A0A0A" fill-opacity="0.54"/>
    <rect x="29.6936" y="56.2524" width="22.8195" height="6.51986" transform="rotate(-90 29.6936 56.2524)" fill="#0A0A0A" fill-opacity="0.54"/>
    <rect x="60.1195" y="61.6855" width="5.43322" height="3.25993" transform="rotate(-90 60.1195 61.6855)" fill="#D9D9D9"/>
    <rect x="61.2057" y="33.4336" width="5.43322" height="3.25993" transform="rotate(-90 61.2057 33.4336)" fill="#D9D9D9"/>
    <rect x="52.5129" y="61.686" width="5.43322" height="3.25993" transform="rotate(-90 52.5129 61.686)" fill="#D9D9D9"/>
    <rect x="53.5995" y="33.4336" width="5.43322" height="3.25993" transform="rotate(-90 53.5995 33.4336)" fill="#D9D9D9"/>
    <rect x="44.9066" y="61.686" width="5.43322" height="3.25993" transform="rotate(-90 44.9066 61.686)" fill="#D9D9D9"/>
    <rect x="45.9932" y="33.4336" width="5.43322" height="3.25993" transform="rotate(-90 45.9932 33.4336)" fill="#D9D9D9"/>
    <rect x="37.2998" y="61.6855" width="5.43322" height="3.25993" transform="rotate(-90 37.2998 61.6855)" fill="#D9D9D9"/>
    <rect x="38.3867" y="33.4336" width="5.43322" height="3.25993" transform="rotate(-90 38.3867 33.4336)" fill="#D9D9D9"/>
    <rect x="29.6936" y="61.686" width="5.43322" height="3.25993" transform="rotate(-90 29.6936 61.686)" fill="#D9D9D9"/>
    <rect x="30.78" y="33.4336" width="5.43322" height="3.25993" transform="rotate(-90 30.78 33.4336)" fill="#D9D9D9"/>
    <rect x="22.0869" y="61.686" width="5.43322" height="3.25993" transform="rotate(-90 22.0869 61.686)" fill="#D9D9D9"/>
    <rect x="23.1733" y="33.4336" width="5.43322" height="3.25993" transform="rotate(-90 23.1733 33.4336)" fill="#D9D9D9"/>
</svg>
